<?xml version="1.0" encoding="UTF-8" standalone="no"?>
<!-- Created with Inkscape (http://www.inkscape.org/) -->

<svg
   width="32.537743mm"
   height="32.543736mm"
   viewBox="0 0 32.537743 32.543736"
   version="1.1"
   id="svg1"
   inkscape:version="1.3 (0e150ed6c4, 2023-07-21)"
   xml:space="preserve"
   sodipodi:docname="Career_helmet.svg"
   xmlns:inkscape="http://www.inkscape.org/namespaces/inkscape"
   xmlns:sodipodi="http://sodipodi.sourceforge.net/DTD/sodipodi-0.dtd"
   xmlns="http://www.w3.org/2000/svg"
   xmlns:svg="http://www.w3.org/2000/svg"><sodipodi:namedview
     id="namedview1"
     pagecolor="#ffffff"
     bordercolor="#eeeeee"
     borderopacity="1"
     inkscape:showpageshadow="0"
     inkscape:pageopacity="0"
     inkscape:pagecheckerboard="0"
     inkscape:deskcolor="#505050"
     inkscape:document-units="mm"
     inkscape:zoom="2.8284271"
     inkscape:cx="2381.5356"
     inkscape:cy="1106.7989"
     inkscape:window-width="3840"
     inkscape:window-height="2054"
     inkscape:window-x="-11"
     inkscape:window-y="-11"
     inkscape:window-maximized="1"
     inkscape:current-layer="layer3" /><defs
     id="defs1"><filter
       inkscape:collect="always"
       style="color-interpolation-filters:sRGB"
       id="filter5-0"
       x="-0.047999998"
       y="-0.047999998"
       width="1.096"
       height="1.096"><feGaussianBlur
         inkscape:collect="always"
         stdDeviation="0.57679161"
         id="feGaussianBlur5-2" /></filter></defs><g
     inkscape:groupmode="layer"
     id="layer3"
     inkscape:label="Icone"
     transform="translate(-597.03114,-260.4031)"><rect
       style="font-variation-settings:normal;display:inline;mix-blend-mode:normal;vector-effect:none;fill:#000000;fill-opacity:0.584314;fill-rule:evenodd;stroke-width:0.264583;stroke-linecap:butt;stroke-linejoin:round;stroke-miterlimit:4;stroke-dasharray:none;stroke-dashoffset:0;stroke-opacity:1;-inkscape-stroke:none;filter:url(#filter5-0);stop-color:#000000"
       id="rect11"
       width="28.839581"
       height="28.839581"
       x="2.6458335"
       y="3.1809595"
       ry="7.9375"
       inkscape:label="Button Shadow"
       transform="matrix(1.0294104,0,0,1.029599,595.73247,258.55327)"
       inkscape:export-filename="ScienceSandbox_normal#128x128.png"
       inkscape:export-xdpi="96"
       inkscape:export-ydpi="96" /><rect
       style="font-variation-settings:normal;display:inline;vector-effect:none;fill:#2f2d34;fill-opacity:1;fill-rule:evenodd;stroke:none;stroke-width:0.264583;stroke-linecap:butt;stroke-linejoin:round;stroke-miterlimit:4;stroke-dasharray:none;stroke-dashoffset:0;stroke-opacity:1;-inkscape-stroke:none;stop-color:#000000"
       id="rect12"
       width="28.839581"
       height="28.839581"
       x="598.354"
       y="261.72604"
       ry="7.9375"
       inkscape:label="Button" /><g
       id="g19"
       inkscape:label="Helmet"
       transform="matrix(0.19454889,0,0,0.19454889,408.88664,254.69259)"><path
         id="path14"
         style="font-variation-settings:normal;opacity:1;vector-effect:none;fill:#d0d0d5;fill-opacity:1;fill-rule:evenodd;stroke-width:0.419461;stroke-linecap:butt;stroke-linejoin:round;stroke-miterlimit:4;stroke-dasharray:none;stroke-dashoffset:0;stroke-opacity:1;-inkscape-stroke:none;stop-color:#000000;stop-opacity:1"
         d="m 1050.0986,70.818605 c -24.3145,3.7e-5 -44.0253,19.433873 -44.0252,43.406655 0.032,2.71032 0.097,3.8242 0.6399,6.48126 5.595,0.46773 9.3168,4.17108 10.5175,8.2114 0.985,3.37293 0.4048,6.95577 -1.511,9.33018 l 59.6264,11.39258 c 2.8325,-1.92696 5.4261,-4.17473 7.7277,-6.69726 l -30.6695,-16.01453 c 0.6591,-1.19731 1.0082,-2.54052 1.0154,-3.90725 0,-3.16496 -1.8233,-6.04672 -4.6834,-7.40214 l 19.0733,-41.119456 c -5.5814,-2.423364 -11.6125,-3.676998 -17.7111,-3.681429 z"
         sodipodi:nodetypes="sccccccccccss"
         inkscape:label="Coque casque" /><path
         style="color:#000000;fill:#d0d0d5;fill-rule:evenodd;stroke-linejoin:round;-inkscape-stroke:none"
         d="m 1066.2988,76.662109 a 0.66156613,0.66156613 0 0 0 -0.3828,0.347657 l -21.2871,45.894534 a 0.66156613,0.66156613 0 0 0 0.293,0.86328 l 34.5703,18.05078 a 0.66156613,0.66156613 0 0 0 0.8183,-0.16797 c 6.194,-7.58591 9.5951,-17.15825 9.6153,-27.05078 a 0.66156613,0.66156613 0 0 0 0,-0.002 c -0.027,-16.116993 -8.9888,-30.823045 -23.1133,-37.902348 a 0.66156613,0.66156613 0 0 0 -0.5137,-0.0332 z m 0.5117,1.566407 c 13.3138,6.96577 21.7671,20.978787 21.793,36.371094 -0.02,9.41018 -3.2332,18.49591 -9.0195,25.77539 l -33.4902,-17.48828 z"
         id="path15"
         inkscape:label="Contour Visière" /><path
         id="path16"
         style="font-variation-settings:normal;opacity:1;vector-effect:none;fill:#2f2d34;fill-opacity:1;fill-rule:evenodd;stroke-width:0.253979;stroke-linecap:butt;stroke-linejoin:round;stroke-miterlimit:4;stroke-dasharray:none;stroke-dashoffset:0;stroke-opacity:1;-inkscape-stroke:none;stop-color:#000000;stop-opacity:1"
         d="m 1045.2286,117.29433 a 5.7271261,5.7271261 0 0 0 -4.9454,2.86442 h -3.853 c -0.8483,0 -1.5312,0.68285 -1.5312,1.53117 v 2.66341 c 0,0.84832 0.6829,1.53117 1.5312,1.53117 h 3.853 a 5.7271261,5.7271261 0 0 0 4.9454,2.86442 5.7271261,5.7271261 0 0 0 5.7273,-5.72729 5.7271261,5.7271261 0 0 0 -5.7273,-5.7273 z"
         inkscape:label="Fixation Visière" /><path
         id="path17"
         style="color:#000000;fill:#2f2d34;fill-opacity:1;fill-rule:evenodd;stroke:none;stroke-linejoin:round;-inkscape-stroke:none"
         d="m 1019.3501,-75.732734 c -0.9497,0.196713 -1.6726,1.04664 -1.6726,2.05116 l 10e-5,3.111108 c 0,1.148023 0.9439,2.093839 2.0919,2.093839 l 69.9533,-1.16e-4 c 1.148,0 2.0919,-0.945575 2.0919,-2.093598 l -10e-5,-3.111108 c 0,-1.148023 -0.9439,-2.093839 -2.0919,-2.093839 l -69.9533,1.16e-4 c -0.1435,0 -0.2836,0.01434 -0.4193,0.04244 z"
         transform="rotate(11.763256)"
         inkscape:label="Espace Vis" /><rect
         style="font-variation-settings:normal;display:inline;fill:#d0d0d5;fill-opacity:1;fill-rule:evenodd;stroke:#2f2d34;stroke-width:1.323;stroke-linecap:butt;stroke-linejoin:round;stroke-miterlimit:4;stroke-dasharray:none;stroke-dashoffset:0;stroke-opacity:1;stop-color:#000000"
         id="rect19"
         width="72.814812"
         height="5.9745483"
         x="1018.3384"
         y="-75.113495"
         ry="1.4314022"
         transform="rotate(11.763256)"
         inkscape:label="Vis" /></g></g></svg>
